<svg xmlns="http://www.w3.org/2000/svg" viewBox="0 0 512 512" width="100%" height="100%">
  <defs>
    <linearGradient id="bgGradient" x1="0%" y1="0%" x2="100%" y2="100%">
      <stop offset="0%" stop-color="#4F46E5" /> <stop offset="100%" stop-color="#0EA5E9" /> </linearGradient>

    <filter id="dropShadow" x="-20%" y="-20%" width="140%" height="140%">
      <feDropShadow dx="0" dy="12" stdDeviation="16" flood-color="#000000" flood-opacity="0.25"/>
    </filter>
  </defs>

  <rect width="512" height="512" rx="112" fill="url(#bgGradient)" />

  <g filter="url(#dropShadow)">
    
    <path 
      d="M 196 160 V 120 A 36 36 0 0 1 232 84 H 280 A 36 36 0 0 1 316 120 V 160" 
      fill="none" 
      stroke="#FFFFFF" 
      stroke-width="32" 
      stroke-linecap="round" 
    />

    <path 
      d="M 86 160 H 426 A 32 32 0 0 1 458 192 V 368 A 32 32 0 0 1 426 400 H 86 A 32 32 0 0 1 54 368 V 192 A 32 32 0 0 1 86 160 Z" 
      fill="#FFFFFF" 
      fill-opacity="0.15" 
      stroke="#FFFFFF" 
      stroke-width="32" 
      stroke-linejoin="round"
    />

    <rect 
      x="216" 
      y="144" 
      width="80" 
      height="36" 
      rx="12" 
      fill="#FFFFFF" 
    />

    <path 
      d="M 140 330 L 210 250 L 280 290 L 370 210" 
      fill="none" 
      stroke="#4ADE80" 
      stroke-width="32" 
      stroke-linecap="round" 
      stroke-linejoin="round" 
    />

    <path 
      d="M 310 210 H 370 V 270" 
      fill="none" 
      stroke="#4ADE80" 
      stroke-width="32" 
      stroke-linecap="round" 
      stroke-linejoin="round" 
    />
  </g>
</svg>
